<?xml version="1.0" standalone="no"?>
<!DOCTYPE svg PUBLIC "-//W3C//DTD SVG 20010904//EN"
 "http://www.w3.org/TR/2001/REC-SVG-20010904/DTD/svg10.dtd">
<svg version="1.0" xmlns="http://www.w3.org/2000/svg"
 width="512.000000pt" height="512.000000pt" viewBox="0 0 512.000000 512.000000"
 preserveAspectRatio="xMidYMid meet">

<g transform="translate(0.000000,512.000000) scale(0.100000,-0.100000)"
fill="#000000" stroke="none">
<path d="M2504 5106 c-24 -11 -1845 -1328 -2195 -1588 -110 -82 -99 113 -99
-1759 0 -1624 0 -1640 20 -1679 13 -26 34 -47 60 -60 39 -20 57 -20 1080 -20
l1040 0 0 675 0 675 -110 0 c-474 0 -898 332 -1020 798 -53 203 -41 497 24
594 44 66 161 94 381 92 115 -1 157 -6 236 -27 240 -63 442 -191 579 -366 30
-39 58 -71 61 -71 3 0 20 21 39 46 90 126 276 272 428 334 143 60 251 82 407
84 220 2 337 -26 381 -92 63 -93 77 -383 28 -582 -115 -469 -547 -810 -1024
-810 l-110 0 0 -675 0 -675 1040 0 c1023 0 1041 0 1080 20 26 13 47 34 60 60
20 39 20 55 20 1679 0 1872 11 1677 -99 1759 -382 284 -2172 1578 -2197 1588
-41 17 -70 17 -110 0z"/>
</g>
</svg>
